<?xml version="1.0" encoding="UTF-8" standalone="no"?>
<!DOCTYPE svg PUBLIC "-//W3C//DTD SVG 1.1//EN"
 "http://www.w3.org/Graphics/SVG/1.1/DTD/svg11.dtd">
<!-- Generated by graphviz version 2.43.0 (0)
 -->
<!-- Title: snakemake_dag Pages: 1 -->
<svg width="421pt" height="332pt"
 viewBox="0.00 0.00 420.50 332.00" xmlns="http://www.w3.org/2000/svg" xmlns:xlink="http://www.w3.org/1999/xlink">
<g id="graph0" class="graph" transform="scale(1 1) rotate(0) translate(4 328)">
<title>snakemake_dag</title>
<polygon fill="white" stroke="transparent" points="-4,4 -4,-328 416.5,-328 416.5,4 -4,4"/>
<!-- 0 -->
<g id="node1" class="node">
<title>0</title>
<path fill="none" stroke="#d85656" stroke-width="2" d="M213,-36C213,-36 183,-36 183,-36 177,-36 171,-30 171,-24 171,-24 171,-12 171,-12 171,-6 177,0 183,0 183,0 213,0 213,0 219,0 225,-6 225,-12 225,-12 225,-24 225,-24 225,-30 219,-36 213,-36"/>
<text text-anchor="middle" x="198" y="-15.5" font-family="sans" font-size="10.00">all</text>
</g>
<!-- 1 -->
<g id="node2" class="node">
<title>1</title>
<path fill="none" stroke="#d88556" stroke-width="2" d="M114,-108C114,-108 12,-108 12,-108 6,-108 0,-102 0,-96 0,-96 0,-84 0,-84 0,-78 6,-72 12,-72 12,-72 114,-72 114,-72 120,-72 126,-78 126,-84 126,-84 126,-96 126,-96 126,-102 120,-108 114,-108"/>
<text text-anchor="middle" x="63" y="-87.5" font-family="sans" font-size="10.00">assembly_stats_initial</text>
</g>
<!-- 1&#45;&gt;0 -->
<g id="edge2" class="edge">
<title>1&#45;&gt;0</title>
<path fill="none" stroke="grey" stroke-width="2" d="M96.02,-71.88C115.93,-61.56 141.29,-48.4 161.75,-37.8"/>
<polygon fill="grey" stroke="grey" stroke-width="2" points="163.5,-40.83 170.76,-33.12 160.27,-34.62 163.5,-40.83"/>
</g>
<!-- 2 -->
<g id="node3" class="node">
<title>2</title>
<path fill="none" stroke="#56d86b" stroke-width="2" d="M152,-180C152,-180 66,-180 66,-180 60,-180 54,-174 54,-168 54,-168 54,-156 54,-156 54,-150 60,-144 66,-144 66,-144 152,-144 152,-144 158,-144 164,-150 164,-156 164,-156 164,-168 164,-168 164,-174 158,-180 152,-180"/>
<text text-anchor="middle" x="109" y="-159.5" font-family="sans" font-size="10.00">gfa_to_fasta_initial</text>
</g>
<!-- 2&#45;&gt;1 -->
<g id="edge4" class="edge">
<title>2&#45;&gt;1</title>
<path fill="none" stroke="grey" stroke-width="2" d="M97.63,-143.7C92.28,-135.56 85.8,-125.69 79.89,-116.7"/>
<polygon fill="grey" stroke="grey" stroke-width="2" points="82.66,-114.54 74.24,-108.1 76.81,-118.38 82.66,-114.54"/>
</g>
<!-- 5 -->
<g id="node6" class="node">
<title>5</title>
<path fill="none" stroke="#ced856" stroke-width="2" d="M239.5,-108C239.5,-108 156.5,-108 156.5,-108 150.5,-108 144.5,-102 144.5,-96 144.5,-96 144.5,-84 144.5,-84 144.5,-78 150.5,-72 156.5,-72 156.5,-72 239.5,-72 239.5,-72 245.5,-72 251.5,-78 251.5,-84 251.5,-84 251.5,-96 251.5,-96 251.5,-102 245.5,-108 239.5,-108"/>
<text text-anchor="middle" x="198" y="-87.5" font-family="sans" font-size="10.00">compleasm_initial</text>
</g>
<!-- 2&#45;&gt;5 -->
<g id="edge7" class="edge">
<title>2&#45;&gt;5</title>
<path fill="none" stroke="grey" stroke-width="2" d="M131,-143.7C142.21,-134.88 156,-124.03 168.15,-114.47"/>
<polygon fill="grey" stroke="grey" stroke-width="2" points="170.56,-117.04 176.25,-108.1 166.23,-111.54 170.56,-117.04"/>
</g>
<!-- 3 -->
<g id="node4" class="node">
<title>3</title>
<path fill="none" stroke="#5682d8" stroke-width="2" d="M176.5,-252C176.5,-252 41.5,-252 41.5,-252 35.5,-252 29.5,-246 29.5,-240 29.5,-240 29.5,-228 29.5,-228 29.5,-222 35.5,-216 41.5,-216 41.5,-216 176.5,-216 176.5,-216 182.5,-216 188.5,-222 188.5,-228 188.5,-228 188.5,-240 188.5,-240 188.5,-246 182.5,-252 176.5,-252"/>
<text text-anchor="middle" x="109" y="-231.5" font-family="sans" font-size="10.00">standardize_initial_assembly</text>
</g>
<!-- 3&#45;&gt;2 -->
<g id="edge5" class="edge">
<title>3&#45;&gt;2</title>
<path fill="none" stroke="grey" stroke-width="2" d="M109,-215.7C109,-207.98 109,-198.71 109,-190.11"/>
<polygon fill="grey" stroke="grey" stroke-width="2" points="112.5,-190.1 109,-180.1 105.5,-190.1 112.5,-190.1"/>
</g>
<!-- 4 -->
<g id="node5" class="node">
<title>4</title>
<path fill="none" stroke="#56b1d8" stroke-width="2" d="M134,-324C134,-324 84,-324 84,-324 78,-324 72,-318 72,-312 72,-312 72,-300 72,-300 72,-294 78,-288 84,-288 84,-288 134,-288 134,-288 140,-288 146,-294 146,-300 146,-300 146,-312 146,-312 146,-318 140,-324 134,-324"/>
<text text-anchor="middle" x="109" y="-303.5" font-family="sans" font-size="10.00">run_hifiasm</text>
</g>
<!-- 4&#45;&gt;3 -->
<g id="edge6" class="edge">
<title>4&#45;&gt;3</title>
<path fill="none" stroke="grey" stroke-width="2" d="M109,-287.7C109,-279.98 109,-270.71 109,-262.11"/>
<polygon fill="grey" stroke="grey" stroke-width="2" points="112.5,-262.1 109,-252.1 105.5,-262.1 112.5,-262.1"/>
</g>
<!-- 5&#45;&gt;0 -->
<g id="edge1" class="edge">
<title>5&#45;&gt;0</title>
<path fill="none" stroke="grey" stroke-width="2" d="M198,-71.7C198,-63.98 198,-54.71 198,-46.11"/>
<polygon fill="grey" stroke="grey" stroke-width="2" points="201.5,-46.1 198,-36.1 194.5,-46.1 201.5,-46.1"/>
</g>
<!-- 6 -->
<g id="node7" class="node">
<title>6</title>
<path fill="none" stroke="#70d856" stroke-width="2" d="M382,-108C382,-108 282,-108 282,-108 276,-108 270,-102 270,-96 270,-96 270,-84 270,-84 270,-78 276,-72 282,-72 282,-72 382,-72 382,-72 388,-72 394,-78 394,-84 394,-84 394,-96 394,-96 394,-102 388,-108 382,-108"/>
<text text-anchor="middle" x="332" y="-87.5" font-family="sans" font-size="10.00">genomescope2_initial</text>
</g>
<!-- 6&#45;&gt;0 -->
<g id="edge3" class="edge">
<title>6&#45;&gt;0</title>
<path fill="none" stroke="grey" stroke-width="2" d="M299.22,-71.88C279.47,-61.56 254.29,-48.4 233.98,-37.8"/>
<polygon fill="grey" stroke="grey" stroke-width="2" points="235.52,-34.65 225.04,-33.12 232.28,-40.86 235.52,-34.65"/>
</g>
<!-- 7 -->
<g id="node8" class="node">
<title>7</title>
<path fill="none" stroke="#56d8c9" stroke-width="2" d="M399,-180C399,-180 265,-180 265,-180 259,-180 253,-174 253,-168 253,-168 253,-156 253,-156 253,-150 259,-144 265,-144 265,-144 399,-144 399,-144 405,-144 411,-150 411,-156 411,-156 411,-168 411,-168 411,-174 405,-180 399,-180"/>
<text text-anchor="middle" x="332" y="-159.5" font-family="sans" font-size="10.00">jellyfish_histo_genomescope</text>
</g>
<!-- 7&#45;&gt;6 -->
<g id="edge8" class="edge">
<title>7&#45;&gt;6</title>
<path fill="none" stroke="grey" stroke-width="2" d="M332,-143.7C332,-135.98 332,-126.71 332,-118.11"/>
<polygon fill="grey" stroke="grey" stroke-width="2" points="335.5,-118.1 332,-108.1 328.5,-118.1 335.5,-118.1"/>
</g>
<!-- 8 -->
<g id="node9" class="node">
<title>8</title>
<path fill="none" stroke="#56d89a" stroke-width="2" d="M400.5,-252C400.5,-252 263.5,-252 263.5,-252 257.5,-252 251.5,-246 251.5,-240 251.5,-240 251.5,-228 251.5,-228 251.5,-222 257.5,-216 263.5,-216 263.5,-216 400.5,-216 400.5,-216 406.5,-216 412.5,-222 412.5,-228 412.5,-228 412.5,-240 412.5,-240 412.5,-246 406.5,-252 400.5,-252"/>
<text text-anchor="middle" x="332" y="-231.5" font-family="sans" font-size="10.00">jellyfish_count_genomescope</text>
</g>
<!-- 8&#45;&gt;7 -->
<g id="edge9" class="edge">
<title>8&#45;&gt;7</title>
<path fill="none" stroke="grey" stroke-width="2" d="M332,-215.7C332,-207.98 332,-198.71 332,-190.11"/>
<polygon fill="grey" stroke="grey" stroke-width="2" points="335.5,-190.1 332,-180.1 328.5,-190.1 335.5,-190.1"/>
</g>
</g>
</svg>
