<?xml version="1.0" encoding="UTF-8" standalone="no"?>
<!DOCTYPE svg PUBLIC "-//W3C//DTD SVG 1.1//EN"
 "http://www.w3.org/Graphics/SVG/1.1/DTD/svg11.dtd">
<!-- Generated by graphviz version 2.43.0 (0)
 -->
<!-- Title: snakemake_dag Pages: 1 -->
<svg width="391pt" height="332pt"
 viewBox="0.00 0.00 391.00 332.00" xmlns="http://www.w3.org/2000/svg" xmlns:xlink="http://www.w3.org/1999/xlink">
<g id="graph0" class="graph" transform="scale(1 1) rotate(0) translate(4 328)">
<title>snakemake_dag</title>
<polygon fill="white" stroke="transparent" points="-4,4 -4,-328 387,-328 387,4 -4,4"/>
<!-- 0 -->
<g id="node1" class="node">
<title>0</title>
<path fill="none" stroke="#d85656" stroke-width="2" d="M196,-36C196,-36 166,-36 166,-36 160,-36 154,-30 154,-24 154,-24 154,-12 154,-12 154,-6 160,0 166,0 166,0 196,0 196,0 202,0 208,-6 208,-12 208,-12 208,-24 208,-24 208,-30 202,-36 196,-36"/>
<text text-anchor="middle" x="181" y="-15.5" font-family="sans" font-size="10.00">all</text>
</g>
<!-- 1 -->
<g id="node2" class="node">
<title>1</title>
<path fill="none" stroke="#d88d56" stroke-width="2" d="M102,-108C102,-108 12,-108 12,-108 6,-108 0,-102 0,-96 0,-96 0,-84 0,-84 0,-78 6,-72 12,-72 12,-72 102,-72 102,-72 108,-72 114,-78 114,-84 114,-84 114,-96 114,-96 114,-102 108,-108 102,-108"/>
<text text-anchor="middle" x="57" y="-87.5" font-family="sans" font-size="10.00">assembly_stats_initial</text>
</g>
<!-- 1&#45;&gt;0 -->
<g id="edge1" class="edge">
<title>1&#45;&gt;0</title>
<path fill="none" stroke="grey" stroke-width="2" d="M87.33,-71.88C104.75,-62.04 126.73,-49.64 145.02,-39.31"/>
<polygon fill="grey" stroke="grey" stroke-width="2" points="146.95,-42.24 153.93,-34.28 143.5,-36.15 146.95,-42.24"/>
</g>
<!-- 2 -->
<g id="node3" class="node">
<title>2</title>
<path fill="none" stroke="#70d856" stroke-width="2" d="M137.5,-180C137.5,-180 60.5,-180 60.5,-180 54.5,-180 48.5,-174 48.5,-168 48.5,-168 48.5,-156 48.5,-156 48.5,-150 54.5,-144 60.5,-144 60.5,-144 137.5,-144 137.5,-144 143.5,-144 149.5,-150 149.5,-156 149.5,-156 149.5,-168 149.5,-168 149.5,-174 143.5,-180 137.5,-180"/>
<text text-anchor="middle" x="99" y="-159.5" font-family="sans" font-size="10.00">gfa_to_fasta_initial</text>
</g>
<!-- 2&#45;&gt;1 -->
<g id="edge4" class="edge">
<title>2&#45;&gt;1</title>
<path fill="none" stroke="grey" stroke-width="2" d="M88.62,-143.7C83.74,-135.56 77.81,-125.69 72.42,-116.7"/>
<polygon fill="grey" stroke="grey" stroke-width="2" points="75.41,-114.88 67.26,-108.1 69.41,-118.48 75.41,-114.88"/>
</g>
<!-- 5 -->
<g id="node6" class="node">
<title>5</title>
<path fill="none" stroke="#d8cb56" stroke-width="2" d="M218,-108C218,-108 144,-108 144,-108 138,-108 132,-102 132,-96 132,-96 132,-84 132,-84 132,-78 138,-72 144,-72 144,-72 218,-72 218,-72 224,-72 230,-78 230,-84 230,-84 230,-96 230,-96 230,-102 224,-108 218,-108"/>
<text text-anchor="middle" x="181" y="-87.5" font-family="sans" font-size="10.00">compleasm_initial</text>
</g>
<!-- 2&#45;&gt;5 -->
<g id="edge7" class="edge">
<title>2&#45;&gt;5</title>
<path fill="none" stroke="grey" stroke-width="2" d="M119.27,-143.7C129.5,-134.97 142.06,-124.24 153.18,-114.75"/>
<polygon fill="grey" stroke="grey" stroke-width="2" points="155.63,-117.26 160.96,-108.1 151.09,-111.94 155.63,-117.26"/>
</g>
<!-- 3 -->
<g id="node4" class="node">
<title>3</title>
<path fill="none" stroke="#5692d8" stroke-width="2" d="M160,-252C160,-252 38,-252 38,-252 32,-252 26,-246 26,-240 26,-240 26,-228 26,-228 26,-222 32,-216 38,-216 38,-216 160,-216 160,-216 166,-216 172,-222 172,-228 172,-228 172,-240 172,-240 172,-246 166,-252 160,-252"/>
<text text-anchor="middle" x="99" y="-231.5" font-family="sans" font-size="10.00">standardize_initial_assembly</text>
</g>
<!-- 3&#45;&gt;2 -->
<g id="edge5" class="edge">
<title>3&#45;&gt;2</title>
<path fill="none" stroke="grey" stroke-width="2" d="M99,-215.7C99,-207.98 99,-198.71 99,-190.11"/>
<polygon fill="grey" stroke="grey" stroke-width="2" points="102.5,-190.1 99,-180.1 95.5,-190.1 102.5,-190.1"/>
</g>
<!-- 4 -->
<g id="node5" class="node">
<title>4</title>
<path fill="none" stroke="#56c9d8" stroke-width="2" d="M122.5,-324C122.5,-324 75.5,-324 75.5,-324 69.5,-324 63.5,-318 63.5,-312 63.5,-312 63.5,-300 63.5,-300 63.5,-294 69.5,-288 75.5,-288 75.5,-288 122.5,-288 122.5,-288 128.5,-288 134.5,-294 134.5,-300 134.5,-300 134.5,-312 134.5,-312 134.5,-318 128.5,-324 122.5,-324"/>
<text text-anchor="middle" x="99" y="-303.5" font-family="sans" font-size="10.00">run_hifiasm</text>
</g>
<!-- 4&#45;&gt;3 -->
<g id="edge6" class="edge">
<title>4&#45;&gt;3</title>
<path fill="none" stroke="grey" stroke-width="2" d="M99,-287.7C99,-279.98 99,-270.71 99,-262.11"/>
<polygon fill="grey" stroke="grey" stroke-width="2" points="102.5,-262.1 99,-252.1 95.5,-262.1 102.5,-262.1"/>
</g>
<!-- 5&#45;&gt;0 -->
<g id="edge2" class="edge">
<title>5&#45;&gt;0</title>
<path fill="none" stroke="grey" stroke-width="2" d="M181,-71.7C181,-63.98 181,-54.71 181,-46.11"/>
<polygon fill="grey" stroke="grey" stroke-width="2" points="184.5,-46.1 181,-36.1 177.5,-46.1 184.5,-46.1"/>
</g>
<!-- 6 -->
<g id="node7" class="node">
<title>6</title>
<path fill="none" stroke="#afd856" stroke-width="2" d="M353.5,-108C353.5,-108 260.5,-108 260.5,-108 254.5,-108 248.5,-102 248.5,-96 248.5,-96 248.5,-84 248.5,-84 248.5,-78 254.5,-72 260.5,-72 260.5,-72 353.5,-72 353.5,-72 359.5,-72 365.5,-78 365.5,-84 365.5,-84 365.5,-96 365.5,-96 365.5,-102 359.5,-108 353.5,-108"/>
<text text-anchor="middle" x="307" y="-87.5" font-family="sans" font-size="10.00">genomescope2_initial</text>
</g>
<!-- 6&#45;&gt;0 -->
<g id="edge3" class="edge">
<title>6&#45;&gt;0</title>
<path fill="none" stroke="grey" stroke-width="2" d="M276.18,-71.88C258.27,-61.93 235.62,-49.35 216.91,-38.95"/>
<polygon fill="grey" stroke="grey" stroke-width="2" points="218.52,-35.84 208.08,-34.05 215.12,-41.96 218.52,-35.84"/>
</g>
<!-- 7 -->
<g id="node8" class="node">
<title>7</title>
<path fill="none" stroke="#56d8a9" stroke-width="2" d="M369.5,-180C369.5,-180 244.5,-180 244.5,-180 238.5,-180 232.5,-174 232.5,-168 232.5,-168 232.5,-156 232.5,-156 232.5,-150 238.5,-144 244.5,-144 244.5,-144 369.5,-144 369.5,-144 375.5,-144 381.5,-150 381.5,-156 381.5,-156 381.5,-168 381.5,-168 381.5,-174 375.5,-180 369.5,-180"/>
<text text-anchor="middle" x="307" y="-159.5" font-family="sans" font-size="10.00">jellyfish_histo_genomescope</text>
</g>
<!-- 7&#45;&gt;6 -->
<g id="edge8" class="edge">
<title>7&#45;&gt;6</title>
<path fill="none" stroke="grey" stroke-width="2" d="M307,-143.7C307,-135.98 307,-126.71 307,-118.11"/>
<polygon fill="grey" stroke="grey" stroke-width="2" points="310.5,-118.1 307,-108.1 303.5,-118.1 310.5,-118.1"/>
</g>
<!-- 8 -->
<g id="node9" class="node">
<title>8</title>
<path fill="none" stroke="#56d873" stroke-width="2" d="M371,-252C371,-252 243,-252 243,-252 237,-252 231,-246 231,-240 231,-240 231,-228 231,-228 231,-222 237,-216 243,-216 243,-216 371,-216 371,-216 377,-216 383,-222 383,-228 383,-228 383,-240 383,-240 383,-246 377,-252 371,-252"/>
<text text-anchor="middle" x="307" y="-231.5" font-family="sans" font-size="10.00">jellyfish_count_genomescope</text>
</g>
<!-- 8&#45;&gt;7 -->
<g id="edge9" class="edge">
<title>8&#45;&gt;7</title>
<path fill="none" stroke="grey" stroke-width="2" d="M307,-215.7C307,-207.98 307,-198.71 307,-190.11"/>
<polygon fill="grey" stroke="grey" stroke-width="2" points="310.5,-190.1 307,-180.1 303.5,-190.1 310.5,-190.1"/>
</g>
</g>
</svg>
