<?xml version="1.0" encoding="UTF-8" standalone="no"?>
<!DOCTYPE svg PUBLIC "-//W3C//DTD SVG 1.1//EN"
 "http://www.w3.org/Graphics/SVG/1.1/DTD/svg11.dtd">
<!-- Generated by graphviz version 2.43.0 (0)
 -->
<!-- Title: snakemake_dag Pages: 1 -->
<svg width="555pt" height="404pt"
 viewBox="0.00 0.00 555.00 404.00" xmlns="http://www.w3.org/2000/svg" xmlns:xlink="http://www.w3.org/1999/xlink">
<g id="graph0" class="graph" transform="scale(1 1) rotate(0) translate(4 400)">
<title>snakemake_dag</title>
<polygon fill="white" stroke="transparent" points="-4,4 -4,-400 551,-400 551,4 -4,4"/>
<!-- 0 -->
<g id="node1" class="node">
<title>0</title>
<path fill="none" stroke="#d85656" stroke-width="2" d="M368,-36C368,-36 338,-36 338,-36 332,-36 326,-30 326,-24 326,-24 326,-12 326,-12 326,-6 332,0 338,0 338,0 368,0 368,0 374,0 380,-6 380,-12 380,-12 380,-24 380,-24 380,-30 374,-36 368,-36"/>
<text text-anchor="middle" x="353" y="-15.5" font-family="sans" font-size="10.00">all</text>
</g>
<!-- 1 -->
<g id="node2" class="node">
<title>1</title>
<path fill="none" stroke="#d87556" stroke-width="2" d="M313,-108C313,-108 223,-108 223,-108 217,-108 211,-102 211,-96 211,-96 211,-84 211,-84 211,-78 217,-72 223,-72 223,-72 313,-72 313,-72 319,-72 325,-78 325,-84 325,-84 325,-96 325,-96 325,-102 319,-108 313,-108"/>
<text text-anchor="middle" x="268" y="-87.5" font-family="sans" font-size="10.00">assembly_stats_initial</text>
</g>
<!-- 1&#45;&gt;0 -->
<g id="edge5" class="edge">
<title>1&#45;&gt;0</title>
<path fill="none" stroke="grey" stroke-width="2" d="M289.01,-71.7C299.72,-62.88 312.89,-52.03 324.5,-42.47"/>
<polygon fill="grey" stroke="grey" stroke-width="2" points="326.74,-45.16 332.23,-36.1 322.29,-39.76 326.74,-45.16"/>
</g>
<!-- 2 -->
<g id="node3" class="node">
<title>2</title>
<path fill="none" stroke="#68d856" stroke-width="2" d="M287.5,-252C287.5,-252 210.5,-252 210.5,-252 204.5,-252 198.5,-246 198.5,-240 198.5,-240 198.5,-228 198.5,-228 198.5,-222 204.5,-216 210.5,-216 210.5,-216 287.5,-216 287.5,-216 293.5,-216 299.5,-222 299.5,-228 299.5,-228 299.5,-240 299.5,-240 299.5,-246 293.5,-252 287.5,-252"/>
<text text-anchor="middle" x="249" y="-231.5" font-family="sans" font-size="10.00">gfa_to_fasta_initial</text>
</g>
<!-- 2&#45;&gt;1 -->
<g id="edge6" class="edge">
<title>2&#45;&gt;1</title>
<path fill="none" stroke="grey" stroke-width="2" d="M251.29,-215.87C254.53,-191.67 260.48,-147.21 264.33,-118.39"/>
<polygon fill="grey" stroke="grey" stroke-width="2" points="267.84,-118.57 265.7,-108.19 260.9,-117.64 267.84,-118.57"/>
</g>
<!-- 5 -->
<g id="node6" class="node">
<title>5</title>
<path fill="none" stroke="#ced856" stroke-width="2" d="M382,-180C382,-180 308,-180 308,-180 302,-180 296,-174 296,-168 296,-168 296,-156 296,-156 296,-150 302,-144 308,-144 308,-144 382,-144 382,-144 388,-144 394,-150 394,-156 394,-156 394,-168 394,-168 394,-174 388,-180 382,-180"/>
<text text-anchor="middle" x="345" y="-159.5" font-family="sans" font-size="10.00">compleasm_initial</text>
</g>
<!-- 2&#45;&gt;5 -->
<g id="edge9" class="edge">
<title>2&#45;&gt;5</title>
<path fill="none" stroke="grey" stroke-width="2" d="M272.73,-215.7C284.94,-206.8 299.99,-195.82 313.18,-186.2"/>
<polygon fill="grey" stroke="grey" stroke-width="2" points="315.52,-188.82 321.54,-180.1 311.4,-183.17 315.52,-188.82"/>
</g>
<!-- 10 -->
<g id="node11" class="node">
<title>10</title>
<path fill="none" stroke="#56c1d8" stroke-width="2" d="M181,-108C181,-108 89,-108 89,-108 83,-108 77,-102 77,-96 77,-96 77,-84 77,-84 77,-78 83,-72 89,-72 89,-72 181,-72 181,-72 187,-72 193,-78 193,-84 193,-84 193,-96 193,-96 193,-102 187,-108 181,-108"/>
<text text-anchor="middle" x="135" y="-87.5" font-family="sans" font-size="10.00">run_blobtoolkit_initial</text>
</g>
<!-- 2&#45;&gt;10 -->
<g id="edge13" class="edge">
<title>2&#45;&gt;10</title>
<path fill="none" stroke="grey" stroke-width="2" d="M244.74,-215.76C239.35,-196.64 228.59,-165.64 211,-144 201.44,-132.24 188.61,-121.95 176.23,-113.65"/>
<polygon fill="grey" stroke="grey" stroke-width="2" points="178.07,-110.68 167.77,-108.23 174.3,-116.57 178.07,-110.68"/>
</g>
<!-- 12 -->
<g id="node13" class="node">
<title>12</title>
<path fill="none" stroke="#56d8a9" stroke-width="2" d="M190,-180C190,-180 80,-180 80,-180 74,-180 68,-174 68,-168 68,-168 68,-156 68,-156 68,-150 74,-144 80,-144 80,-144 190,-144 190,-144 196,-144 202,-150 202,-156 202,-156 202,-168 202,-168 202,-174 196,-180 190,-180"/>
<text text-anchor="middle" x="135" y="-159.5" font-family="sans" font-size="10.00">make_blobtoolkit_params</text>
</g>
<!-- 2&#45;&gt;12 -->
<g id="edge16" class="edge">
<title>2&#45;&gt;12</title>
<path fill="none" stroke="grey" stroke-width="2" d="M221.11,-215.88C206.21,-206.72 187.67,-195.34 171.62,-185.48"/>
<polygon fill="grey" stroke="grey" stroke-width="2" points="173.35,-182.44 162.99,-180.19 169.69,-188.41 173.35,-182.44"/>
</g>
<!-- 3 -->
<g id="node4" class="node">
<title>3</title>
<path fill="none" stroke="#567bd8" stroke-width="2" d="M310,-324C310,-324 188,-324 188,-324 182,-324 176,-318 176,-312 176,-312 176,-300 176,-300 176,-294 182,-288 188,-288 188,-288 310,-288 310,-288 316,-288 322,-294 322,-300 322,-300 322,-312 322,-312 322,-318 316,-324 310,-324"/>
<text text-anchor="middle" x="249" y="-303.5" font-family="sans" font-size="10.00">standardize_initial_assembly</text>
</g>
<!-- 3&#45;&gt;2 -->
<g id="edge7" class="edge">
<title>3&#45;&gt;2</title>
<path fill="none" stroke="grey" stroke-width="2" d="M249,-287.7C249,-279.98 249,-270.71 249,-262.11"/>
<polygon fill="grey" stroke="grey" stroke-width="2" points="252.5,-262.1 249,-252.1 245.5,-262.1 252.5,-262.1"/>
</g>
<!-- 4 -->
<g id="node5" class="node">
<title>4</title>
<path fill="none" stroke="#569ad8" stroke-width="2" d="M272.5,-396C272.5,-396 225.5,-396 225.5,-396 219.5,-396 213.5,-390 213.5,-384 213.5,-384 213.5,-372 213.5,-372 213.5,-366 219.5,-360 225.5,-360 225.5,-360 272.5,-360 272.5,-360 278.5,-360 284.5,-366 284.5,-372 284.5,-372 284.5,-384 284.5,-384 284.5,-390 278.5,-396 272.5,-396"/>
<text text-anchor="middle" x="249" y="-375.5" font-family="sans" font-size="10.00">run_hifiasm</text>
</g>
<!-- 4&#45;&gt;3 -->
<g id="edge8" class="edge">
<title>4&#45;&gt;3</title>
<path fill="none" stroke="grey" stroke-width="2" d="M249,-359.7C249,-351.98 249,-342.71 249,-334.11"/>
<polygon fill="grey" stroke="grey" stroke-width="2" points="252.5,-334.1 249,-324.1 245.5,-334.1 252.5,-334.1"/>
</g>
<!-- 5&#45;&gt;0 -->
<g id="edge2" class="edge">
<title>5&#45;&gt;0</title>
<path fill="none" stroke="grey" stroke-width="2" d="M345.96,-143.87C347.33,-119.67 349.83,-75.21 351.46,-46.39"/>
<polygon fill="grey" stroke="grey" stroke-width="2" points="354.96,-46.37 352.03,-36.19 347.97,-45.98 354.96,-46.37"/>
</g>
<!-- 6 -->
<g id="node7" class="node">
<title>6</title>
<path fill="none" stroke="#88d856" stroke-width="2" d="M517.5,-180C517.5,-180 424.5,-180 424.5,-180 418.5,-180 412.5,-174 412.5,-168 412.5,-168 412.5,-156 412.5,-156 412.5,-150 418.5,-144 424.5,-144 424.5,-144 517.5,-144 517.5,-144 523.5,-144 529.5,-150 529.5,-156 529.5,-156 529.5,-168 529.5,-168 529.5,-174 523.5,-180 517.5,-180"/>
<text text-anchor="middle" x="471" y="-159.5" font-family="sans" font-size="10.00">genomescope2_initial</text>
</g>
<!-- 6&#45;&gt;0 -->
<g id="edge4" class="edge">
<title>6&#45;&gt;0</title>
<path fill="none" stroke="grey" stroke-width="2" d="M448.87,-143.9C436.93,-134.09 422.36,-121.15 411,-108 393.98,-88.3 378.1,-63.27 367.27,-44.77"/>
<polygon fill="grey" stroke="grey" stroke-width="2" points="370.25,-42.94 362.24,-36.01 364.19,-46.43 370.25,-42.94"/>
</g>
<!-- 9 -->
<g id="node10" class="node">
<title>9</title>
<path fill="none" stroke="#d8bc56" stroke-width="2" d="M507.5,-108C507.5,-108 432.5,-108 432.5,-108 426.5,-108 420.5,-102 420.5,-96 420.5,-96 420.5,-84 420.5,-84 420.5,-78 426.5,-72 432.5,-72 432.5,-72 507.5,-72 507.5,-72 513.5,-72 519.5,-78 519.5,-84 519.5,-84 519.5,-96 519.5,-96 519.5,-102 513.5,-108 507.5,-108"/>
<text text-anchor="middle" x="470" y="-87.5" font-family="sans" font-size="10.00">compile_decisions</text>
</g>
<!-- 6&#45;&gt;9 -->
<g id="edge12" class="edge">
<title>6&#45;&gt;9</title>
<path fill="none" stroke="grey" stroke-width="2" d="M470.75,-143.7C470.64,-135.98 470.51,-126.71 470.39,-118.11"/>
<polygon fill="grey" stroke="grey" stroke-width="2" points="473.89,-118.05 470.24,-108.1 466.89,-118.15 473.89,-118.05"/>
</g>
<!-- 7 -->
<g id="node8" class="node">
<title>7</title>
<path fill="none" stroke="#56d88a" stroke-width="2" d="M533.5,-252C533.5,-252 408.5,-252 408.5,-252 402.5,-252 396.5,-246 396.5,-240 396.5,-240 396.5,-228 396.5,-228 396.5,-222 402.5,-216 408.5,-216 408.5,-216 533.5,-216 533.5,-216 539.5,-216 545.5,-222 545.5,-228 545.5,-228 545.5,-240 545.5,-240 545.5,-246 539.5,-252 533.5,-252"/>
<text text-anchor="middle" x="471" y="-231.5" font-family="sans" font-size="10.00">jellyfish_histo_genomescope</text>
</g>
<!-- 7&#45;&gt;6 -->
<g id="edge10" class="edge">
<title>7&#45;&gt;6</title>
<path fill="none" stroke="grey" stroke-width="2" d="M471,-215.7C471,-207.98 471,-198.71 471,-190.11"/>
<polygon fill="grey" stroke="grey" stroke-width="2" points="474.5,-190.1 471,-180.1 467.5,-190.1 474.5,-190.1"/>
</g>
<!-- 8 -->
<g id="node9" class="node">
<title>8</title>
<path fill="none" stroke="#56d86b" stroke-width="2" d="M535,-324C535,-324 407,-324 407,-324 401,-324 395,-318 395,-312 395,-312 395,-300 395,-300 395,-294 401,-288 407,-288 407,-288 535,-288 535,-288 541,-288 547,-294 547,-300 547,-300 547,-312 547,-312 547,-318 541,-324 535,-324"/>
<text text-anchor="middle" x="471" y="-303.5" font-family="sans" font-size="10.00">jellyfish_count_genomescope</text>
</g>
<!-- 8&#45;&gt;7 -->
<g id="edge11" class="edge">
<title>8&#45;&gt;7</title>
<path fill="none" stroke="grey" stroke-width="2" d="M471,-287.7C471,-279.98 471,-270.71 471,-262.11"/>
<polygon fill="grey" stroke="grey" stroke-width="2" points="474.5,-262.1 471,-252.1 467.5,-262.1 474.5,-262.1"/>
</g>
<!-- 9&#45;&gt;0 -->
<g id="edge3" class="edge">
<title>9&#45;&gt;0</title>
<path fill="none" stroke="grey" stroke-width="2" d="M441.38,-71.88C425.62,-62.45 405.92,-50.66 389.11,-40.61"/>
<polygon fill="grey" stroke="grey" stroke-width="2" points="390.5,-37.36 380.12,-35.23 386.9,-43.36 390.5,-37.36"/>
</g>
<!-- 10&#45;&gt;0 -->
<g id="edge1" class="edge">
<title>10&#45;&gt;0</title>
<path fill="none" stroke="grey" stroke-width="2" d="M188.05,-71.97C227.74,-59.22 281.01,-42.12 316.14,-30.84"/>
<polygon fill="grey" stroke="grey" stroke-width="2" points="317.53,-34.07 325.98,-27.68 315.39,-27.4 317.53,-34.07"/>
</g>
<!-- 11 -->
<g id="node12" class="node">
<title>11</title>
<path fill="none" stroke="#56d8d0" stroke-width="2" d="M148,-252C148,-252 12,-252 12,-252 6,-252 0,-246 0,-240 0,-240 0,-228 0,-228 0,-222 6,-216 12,-216 12,-216 148,-216 148,-216 154,-216 160,-222 160,-228 160,-228 160,-240 160,-240 160,-246 154,-252 148,-252"/>
<text text-anchor="middle" x="80" y="-231.5" font-family="sans" font-size="10.00">make_blobtoolkit_samplesheet</text>
</g>
<!-- 11&#45;&gt;10 -->
<g id="edge15" class="edge">
<title>11&#45;&gt;10</title>
<path fill="none" stroke="grey" stroke-width="2" d="M69.15,-215.72C58.96,-197.12 46.96,-167.08 59,-144 65.47,-131.61 76.3,-121.52 87.79,-113.6"/>
<polygon fill="grey" stroke="grey" stroke-width="2" points="89.68,-116.55 96.22,-108.22 85.91,-110.65 89.68,-116.55"/>
</g>
<!-- 11&#45;&gt;12 -->
<g id="edge17" class="edge">
<title>11&#45;&gt;12</title>
<path fill="none" stroke="grey" stroke-width="2" d="M93.6,-215.7C100.12,-207.39 108.07,-197.28 115.25,-188.14"/>
<polygon fill="grey" stroke="grey" stroke-width="2" points="118.13,-190.13 121.56,-180.1 112.63,-185.81 118.13,-190.13"/>
</g>
<!-- 12&#45;&gt;10 -->
<g id="edge14" class="edge">
<title>12&#45;&gt;10</title>
<path fill="none" stroke="grey" stroke-width="2" d="M135,-143.7C135,-135.98 135,-126.71 135,-118.11"/>
<polygon fill="grey" stroke="grey" stroke-width="2" points="138.5,-118.1 135,-108.1 131.5,-118.1 138.5,-118.1"/>
</g>
</g>
</svg>
