<?xml version="1.0" encoding="UTF-8" standalone="no"?>
<!DOCTYPE svg PUBLIC "-//W3C//DTD SVG 1.1//EN"
 "http://www.w3.org/Graphics/SVG/1.1/DTD/svg11.dtd">
<!-- Generated by graphviz version 2.43.0 (0)
 -->
<!-- Title: snakemake_dag Pages: 1 -->
<svg width="588pt" height="404pt"
 viewBox="0.00 0.00 587.50 404.00" xmlns="http://www.w3.org/2000/svg" xmlns:xlink="http://www.w3.org/1999/xlink">
<g id="graph0" class="graph" transform="scale(1 1) rotate(0) translate(4 400)">
<title>snakemake_dag</title>
<polygon fill="white" stroke="transparent" points="-4,4 -4,-400 583.5,-400 583.5,4 -4,4"/>
<!-- 0 -->
<g id="node1" class="node">
<title>0</title>
<path fill="none" stroke="#d85656" stroke-width="2" d="M394,-36C394,-36 364,-36 364,-36 358,-36 352,-30 352,-24 352,-24 352,-12 352,-12 352,-6 358,0 364,0 364,0 394,0 394,0 400,0 406,-6 406,-12 406,-12 406,-24 406,-24 406,-30 400,-36 394,-36"/>
<text text-anchor="middle" x="379" y="-15.5" font-family="sans" font-size="10.00">all</text>
</g>
<!-- 1 -->
<g id="node2" class="node">
<title>1</title>
<path fill="none" stroke="#d87556" stroke-width="2" d="M339,-108C339,-108 237,-108 237,-108 231,-108 225,-102 225,-96 225,-96 225,-84 225,-84 225,-78 231,-72 237,-72 237,-72 339,-72 339,-72 345,-72 351,-78 351,-84 351,-84 351,-96 351,-96 351,-102 345,-108 339,-108"/>
<text text-anchor="middle" x="288" y="-87.5" font-family="sans" font-size="10.00">assembly_stats_initial</text>
</g>
<!-- 1&#45;&gt;0 -->
<g id="edge3" class="edge">
<title>1&#45;&gt;0</title>
<path fill="none" stroke="grey" stroke-width="2" d="M310.49,-71.7C321.96,-62.88 336.06,-52.03 348.48,-42.47"/>
<polygon fill="grey" stroke="grey" stroke-width="2" points="350.97,-44.98 356.76,-36.1 346.7,-39.43 350.97,-44.98"/>
</g>
<!-- 2 -->
<g id="node3" class="node">
<title>2</title>
<path fill="none" stroke="#68d856" stroke-width="2" d="M307,-252C307,-252 221,-252 221,-252 215,-252 209,-246 209,-240 209,-240 209,-228 209,-228 209,-222 215,-216 221,-216 221,-216 307,-216 307,-216 313,-216 319,-222 319,-228 319,-228 319,-240 319,-240 319,-246 313,-252 307,-252"/>
<text text-anchor="middle" x="264" y="-231.5" font-family="sans" font-size="10.00">gfa_to_fasta_initial</text>
</g>
<!-- 2&#45;&gt;1 -->
<g id="edge6" class="edge">
<title>2&#45;&gt;1</title>
<path fill="none" stroke="grey" stroke-width="2" d="M266.89,-215.87C270.99,-191.67 278.5,-147.21 283.37,-118.39"/>
<polygon fill="grey" stroke="grey" stroke-width="2" points="286.88,-118.63 285.09,-108.19 279.98,-117.47 286.88,-118.63"/>
</g>
<!-- 5 -->
<g id="node6" class="node">
<title>5</title>
<path fill="none" stroke="#ced856" stroke-width="2" d="M406.5,-180C406.5,-180 323.5,-180 323.5,-180 317.5,-180 311.5,-174 311.5,-168 311.5,-168 311.5,-156 311.5,-156 311.5,-150 317.5,-144 323.5,-144 323.5,-144 406.5,-144 406.5,-144 412.5,-144 418.5,-150 418.5,-156 418.5,-156 418.5,-168 418.5,-168 418.5,-174 412.5,-180 406.5,-180"/>
<text text-anchor="middle" x="365" y="-159.5" font-family="sans" font-size="10.00">compleasm_initial</text>
</g>
<!-- 2&#45;&gt;5 -->
<g id="edge9" class="edge">
<title>2&#45;&gt;5</title>
<path fill="none" stroke="grey" stroke-width="2" d="M288.71,-215.88C301.67,-206.89 317.73,-195.76 331.77,-186.03"/>
<polygon fill="grey" stroke="grey" stroke-width="2" points="333.97,-188.76 340.2,-180.19 329.98,-183.01 333.97,-188.76"/>
</g>
<!-- 10 -->
<g id="node11" class="node">
<title>10</title>
<path fill="none" stroke="#56c1d8" stroke-width="2" d="M194.5,-108C194.5,-108 95.5,-108 95.5,-108 89.5,-108 83.5,-102 83.5,-96 83.5,-96 83.5,-84 83.5,-84 83.5,-78 89.5,-72 95.5,-72 95.5,-72 194.5,-72 194.5,-72 200.5,-72 206.5,-78 206.5,-84 206.5,-84 206.5,-96 206.5,-96 206.5,-102 200.5,-108 194.5,-108"/>
<text text-anchor="middle" x="145" y="-87.5" font-family="sans" font-size="10.00">run_blobtoolkit_initial</text>
</g>
<!-- 2&#45;&gt;10 -->
<g id="edge14" class="edge">
<title>2&#45;&gt;10</title>
<path fill="none" stroke="grey" stroke-width="2" d="M259.61,-215.68C254.07,-196.49 243.03,-165.43 225,-144 214.98,-132.09 201.62,-121.81 188.69,-113.56"/>
<polygon fill="grey" stroke="grey" stroke-width="2" points="190.21,-110.39 179.85,-108.18 186.57,-116.37 190.21,-110.39"/>
</g>
<!-- 12 -->
<g id="node13" class="node">
<title>12</title>
<path fill="none" stroke="#56d8a9" stroke-width="2" d="M204.5,-180C204.5,-180 85.5,-180 85.5,-180 79.5,-180 73.5,-174 73.5,-168 73.5,-168 73.5,-156 73.5,-156 73.5,-150 79.5,-144 85.5,-144 85.5,-144 204.5,-144 204.5,-144 210.5,-144 216.5,-150 216.5,-156 216.5,-156 216.5,-168 216.5,-168 216.5,-174 210.5,-180 204.5,-180"/>
<text text-anchor="middle" x="145" y="-159.5" font-family="sans" font-size="10.00">make_blobtoolkit_params</text>
</g>
<!-- 2&#45;&gt;12 -->
<g id="edge16" class="edge">
<title>2&#45;&gt;12</title>
<path fill="none" stroke="grey" stroke-width="2" d="M234.89,-215.88C219.33,-206.72 199.98,-195.34 183.22,-185.48"/>
<polygon fill="grey" stroke="grey" stroke-width="2" points="184.62,-182.24 174.22,-180.19 181.07,-188.28 184.62,-182.24"/>
</g>
<!-- 3 -->
<g id="node4" class="node">
<title>3</title>
<path fill="none" stroke="#567bd8" stroke-width="2" d="M331.5,-324C331.5,-324 196.5,-324 196.5,-324 190.5,-324 184.5,-318 184.5,-312 184.5,-312 184.5,-300 184.5,-300 184.5,-294 190.5,-288 196.5,-288 196.5,-288 331.5,-288 331.5,-288 337.5,-288 343.5,-294 343.5,-300 343.5,-300 343.5,-312 343.5,-312 343.5,-318 337.5,-324 331.5,-324"/>
<text text-anchor="middle" x="264" y="-303.5" font-family="sans" font-size="10.00">standardize_initial_assembly</text>
</g>
<!-- 3&#45;&gt;2 -->
<g id="edge7" class="edge">
<title>3&#45;&gt;2</title>
<path fill="none" stroke="grey" stroke-width="2" d="M264,-287.7C264,-279.98 264,-270.71 264,-262.11"/>
<polygon fill="grey" stroke="grey" stroke-width="2" points="267.5,-262.1 264,-252.1 260.5,-262.1 267.5,-262.1"/>
</g>
<!-- 4 -->
<g id="node5" class="node">
<title>4</title>
<path fill="none" stroke="#569ad8" stroke-width="2" d="M289,-396C289,-396 239,-396 239,-396 233,-396 227,-390 227,-384 227,-384 227,-372 227,-372 227,-366 233,-360 239,-360 239,-360 289,-360 289,-360 295,-360 301,-366 301,-372 301,-372 301,-384 301,-384 301,-390 295,-396 289,-396"/>
<text text-anchor="middle" x="264" y="-375.5" font-family="sans" font-size="10.00">run_hifiasm</text>
</g>
<!-- 4&#45;&gt;3 -->
<g id="edge8" class="edge">
<title>4&#45;&gt;3</title>
<path fill="none" stroke="grey" stroke-width="2" d="M264,-359.7C264,-351.98 264,-342.71 264,-334.11"/>
<polygon fill="grey" stroke="grey" stroke-width="2" points="267.5,-334.1 264,-324.1 260.5,-334.1 267.5,-334.1"/>
</g>
<!-- 5&#45;&gt;0 -->
<g id="edge2" class="edge">
<title>5&#45;&gt;0</title>
<path fill="none" stroke="grey" stroke-width="2" d="M366.69,-143.87C369.07,-119.67 373.46,-75.21 376.3,-46.39"/>
<polygon fill="grey" stroke="grey" stroke-width="2" points="379.81,-46.48 377.31,-36.19 372.84,-45.8 379.81,-46.48"/>
</g>
<!-- 6 -->
<g id="node7" class="node">
<title>6</title>
<path fill="none" stroke="#88d856" stroke-width="2" d="M549,-180C549,-180 449,-180 449,-180 443,-180 437,-174 437,-168 437,-168 437,-156 437,-156 437,-150 443,-144 449,-144 449,-144 549,-144 549,-144 555,-144 561,-150 561,-156 561,-156 561,-168 561,-168 561,-174 555,-180 549,-180"/>
<text text-anchor="middle" x="499" y="-159.5" font-family="sans" font-size="10.00">genomescope2_initial</text>
</g>
<!-- 6&#45;&gt;0 -->
<g id="edge4" class="edge">
<title>6&#45;&gt;0</title>
<path fill="none" stroke="grey" stroke-width="2" d="M475.79,-143.78C463.49,-134.04 448.59,-121.2 437,-108 419.82,-88.44 403.96,-63.39 393.18,-44.85"/>
<polygon fill="grey" stroke="grey" stroke-width="2" points="396.16,-43.02 388.17,-36.07 390.08,-46.49 396.16,-43.02"/>
</g>
<!-- 9 -->
<g id="node10" class="node">
<title>9</title>
<path fill="none" stroke="#d8bc56" stroke-width="2" d="M540.5,-108C540.5,-108 457.5,-108 457.5,-108 451.5,-108 445.5,-102 445.5,-96 445.5,-96 445.5,-84 445.5,-84 445.5,-78 451.5,-72 457.5,-72 457.5,-72 540.5,-72 540.5,-72 546.5,-72 552.5,-78 552.5,-84 552.5,-84 552.5,-96 552.5,-96 552.5,-102 546.5,-108 540.5,-108"/>
<text text-anchor="middle" x="499" y="-87.5" font-family="sans" font-size="10.00">compile_decisions</text>
</g>
<!-- 6&#45;&gt;9 -->
<g id="edge12" class="edge">
<title>6&#45;&gt;9</title>
<path fill="none" stroke="grey" stroke-width="2" d="M499,-143.7C499,-135.98 499,-126.71 499,-118.11"/>
<polygon fill="grey" stroke="grey" stroke-width="2" points="502.5,-118.1 499,-108.1 495.5,-118.1 502.5,-118.1"/>
</g>
<!-- 7 -->
<g id="node8" class="node">
<title>7</title>
<path fill="none" stroke="#56d88a" stroke-width="2" d="M566,-252C566,-252 432,-252 432,-252 426,-252 420,-246 420,-240 420,-240 420,-228 420,-228 420,-222 426,-216 432,-216 432,-216 566,-216 566,-216 572,-216 578,-222 578,-228 578,-228 578,-240 578,-240 578,-246 572,-252 566,-252"/>
<text text-anchor="middle" x="499" y="-231.5" font-family="sans" font-size="10.00">jellyfish_histo_genomescope</text>
</g>
<!-- 7&#45;&gt;6 -->
<g id="edge10" class="edge">
<title>7&#45;&gt;6</title>
<path fill="none" stroke="grey" stroke-width="2" d="M499,-215.7C499,-207.98 499,-198.71 499,-190.11"/>
<polygon fill="grey" stroke="grey" stroke-width="2" points="502.5,-190.1 499,-180.1 495.5,-190.1 502.5,-190.1"/>
</g>
<!-- 8 -->
<g id="node9" class="node">
<title>8</title>
<path fill="none" stroke="#56d86b" stroke-width="2" d="M567.5,-324C567.5,-324 430.5,-324 430.5,-324 424.5,-324 418.5,-318 418.5,-312 418.5,-312 418.5,-300 418.5,-300 418.5,-294 424.5,-288 430.5,-288 430.5,-288 567.5,-288 567.5,-288 573.5,-288 579.5,-294 579.5,-300 579.5,-300 579.5,-312 579.5,-312 579.5,-318 573.5,-324 567.5,-324"/>
<text text-anchor="middle" x="499" y="-303.5" font-family="sans" font-size="10.00">jellyfish_count_genomescope</text>
</g>
<!-- 8&#45;&gt;7 -->
<g id="edge11" class="edge">
<title>8&#45;&gt;7</title>
<path fill="none" stroke="grey" stroke-width="2" d="M499,-287.7C499,-279.98 499,-270.71 499,-262.11"/>
<polygon fill="grey" stroke="grey" stroke-width="2" points="502.5,-262.1 499,-252.1 495.5,-262.1 502.5,-262.1"/>
</g>
<!-- 9&#45;&gt;0 -->
<g id="edge1" class="edge">
<title>9&#45;&gt;0</title>
<path fill="none" stroke="grey" stroke-width="2" d="M469.64,-71.88C453.1,-62.23 432.31,-50.1 414.81,-39.89"/>
<polygon fill="grey" stroke="grey" stroke-width="2" points="416.4,-36.77 406,-34.75 412.87,-42.81 416.4,-36.77"/>
</g>
<!-- 10&#45;&gt;0 -->
<g id="edge5" class="edge">
<title>10&#45;&gt;0</title>
<path fill="none" stroke="grey" stroke-width="2" d="M201.94,-71.97C245.47,-58.94 304.21,-41.37 341.86,-30.11"/>
<polygon fill="grey" stroke="grey" stroke-width="2" points="343.31,-33.33 351.89,-27.11 341.3,-26.62 343.31,-33.33"/>
</g>
<!-- 11 -->
<g id="node12" class="node">
<title>11</title>
<path fill="none" stroke="#56d8d0" stroke-width="2" d="M158,-252C158,-252 12,-252 12,-252 6,-252 0,-246 0,-240 0,-240 0,-228 0,-228 0,-222 6,-216 12,-216 12,-216 158,-216 158,-216 164,-216 170,-222 170,-228 170,-228 170,-240 170,-240 170,-246 164,-252 158,-252"/>
<text text-anchor="middle" x="85" y="-231.5" font-family="sans" font-size="10.00">make_blobtoolkit_samplesheet</text>
</g>
<!-- 11&#45;&gt;10 -->
<g id="edge15" class="edge">
<title>11&#45;&gt;10</title>
<path fill="none" stroke="grey" stroke-width="2" d="M74.2,-215.99C63.87,-197.35 51.54,-167.04 64,-144 70.82,-131.39 82.09,-121.3 94.08,-113.45"/>
<polygon fill="grey" stroke="grey" stroke-width="2" points="96.14,-116.29 102.89,-108.13 92.52,-110.3 96.14,-116.29"/>
</g>
<!-- 11&#45;&gt;12 -->
<g id="edge17" class="edge">
<title>11&#45;&gt;12</title>
<path fill="none" stroke="grey" stroke-width="2" d="M99.83,-215.7C107.02,-207.3 115.8,-197.07 123.69,-187.86"/>
<polygon fill="grey" stroke="grey" stroke-width="2" points="126.49,-189.97 130.34,-180.1 121.17,-185.42 126.49,-189.97"/>
</g>
<!-- 12&#45;&gt;10 -->
<g id="edge13" class="edge">
<title>12&#45;&gt;10</title>
<path fill="none" stroke="grey" stroke-width="2" d="M145,-143.7C145,-135.98 145,-126.71 145,-118.11"/>
<polygon fill="grey" stroke="grey" stroke-width="2" points="148.5,-118.1 145,-108.1 141.5,-118.1 148.5,-118.1"/>
</g>
</g>
</svg>
